<svg id="Layer_1" data-name="Layer 1" xmlns="http://www.w3.org/2000/svg" viewBox="0 0 24 24"><title>Working File2</title><path d="M12,17.63A5.63,5.63,0,1,1,17.67,12,5.65,5.65,0,0,1,12,17.63ZM12,8.1A3.9,3.9,0,1,0,15.93,12,3.92,3.92,0,0,0,12,8.1ZM12.28,21C6,21,1.46,14.82.18,12.89l-0.07-.11a0.88,0.88,0,0,1,.08-1C1,10.43,5.52,3.13,11.95,3c4.2-.06,8.23,2.92,11.93,8.92a0.86,0.86,0,0,1,0,.92C20.32,18.24,16.44,21,12.31,21h0ZM1.9,12.34c1.26,1.8,5.32,6.94,10.38,6.94h0c3.39,0,6.69-2.34,9.79-6.92C18.83,7.22,15.46,4.65,12,4.72,6.9,4.83,3,10.64,1.9,12.34Z"/></svg>