<svg id="Layer_1" data-name="Layer 1" xmlns="http://www.w3.org/2000/svg" viewBox="0 0 24 24"><title>Working File2</title><path d="M12,23a0.87,0.87,0,0,1-.44-0.12C-0.87,15.59-.28,8.27.19,6.2A6.41,6.41,0,0,1,5.74,1,6.1,6.1,0,0,1,12,4.23,6.13,6.13,0,0,1,18.24,1a6.43,6.43,0,0,1,5.57,5.19c0.48,2.07,1.07,9.39-11.35,16.66A0.87,0.87,0,0,1,12,23ZM6.43,2.74l-0.55,0a4.62,4.62,0,0,0-4,3.83C1.06,10.2,3.3,15.88,12,21.12,23,14.55,22.51,8.36,22.11,6.61A4.65,4.65,0,0,0,12.88,7a0.88,0.88,0,0,1-.87.77A0.92,0.92,0,0,1,11.1,7C11,6.58,10.47,2.74,6.43,2.74Z"/></svg>